<svg width="19" height="20" viewBox="0 0 19 20" fill="none" xmlns="http://www.w3.org/2000/svg">
<path d="M10.1167 0C9.90059 0 9.72662 0.181323 9.72662 0.404753C9.72662 0.628218 9.90059 0.809609 10.1167 0.809609C14.5853 0.809609 18.22 4.58235 18.22 9.21981C18.22 9.44324 18.394 9.62457 18.61 9.62457C18.8253 9.62457 19 9.44324 19 9.21981C19 4.13545 15.0143 0 10.1167 0ZM10.1173 2.58988C9.90128 2.58988 9.72732 2.77127 9.72732 2.99473C9.72732 3.21818 9.90128 3.39948 10.1173 3.39948C13.2092 3.39948 15.7263 6.01053 15.7263 9.21981C15.7263 9.44324 15.9002 9.62457 16.1163 9.62457C16.3308 9.62457 16.5063 9.44324 16.5063 9.21981C16.5063 5.56442 13.6398 2.58988 10.1173 2.58988V2.58988ZM6.6287 2.66721C6.55993 2.66755 6.49105 2.67725 6.42401 2.69673C6.20557 2.75905 6.02625 2.91532 5.92876 3.12583L2.51779 10.4941C2.39676 10.7571 2.42375 11.0577 2.56981 11.289L1.11375 12.799C0.396152 13.5439 0 14.534 0 15.5865C0 16.639 0.396218 17.6291 1.11227 18.3724C1.82985 19.1172 2.78301 19.5277 3.79778 19.5277C4.49613 19.5277 5.16559 19.3333 5.74907 18.9693C6.45115 19.6479 7.29478 19.9997 8.07295 19.9997L8.0746 20C8.68378 20 9.25471 19.7822 9.68367 19.3377C9.98868 19.0212 9.98868 18.5088 9.68367 18.193C9.37871 17.8771 8.88578 17.8763 8.58082 18.1937C8.2855 18.4988 7.57484 18.4352 6.93976 17.8994L7.93858 16.8623C8.06582 16.949 8.21498 16.9954 8.36706 16.9954C8.48093 16.9954 8.59489 16.9694 8.70409 16.9144L15.802 13.3732C16.0056 13.272 16.1569 13.085 16.2162 12.8599C16.277 12.6357 16.2404 12.3943 16.1172 12.1992C13.7335 8.43376 10.686 5.27143 7.06059 2.79971C6.93081 2.71174 6.78004 2.66666 6.62876 2.66733L6.6287 2.66721ZM6.94353 4.67386C9.82403 6.76424 12.2966 9.33071 14.3121 12.3214L8.63149 15.155C7.41467 13.373 5.93341 11.8348 4.2151 10.5694L6.94353 4.67386V4.67386ZM3.82158 12.2803C5.01361 13.2285 6.07206 14.3266 6.98456 15.5626L5.38118 17.2275C4.53721 18.1052 3.06381 18.1076 2.21669 17.2275C1.79319 16.7888 1.5599 16.2067 1.5599 15.5865C1.5599 14.9664 1.79319 14.3834 2.21669 13.9446L3.82158 12.2803V12.2803Z" fill="white"/>
</svg>
