<svg width="40" height="41" viewBox="0 0 40 41" fill="none" xmlns="http://www.w3.org/2000/svg">
<path d="M1.47878 0C0.661229 0 0 0.662442 0 1.47999C0 2.29633 0.660825 2.95837 1.47878 2.95837C2.29592 2.95837 2.95715 2.29593 2.95715 1.47999C2.95675 0.662038 2.29592 0 1.47878 0Z" transform="translate(11.2765 31.5977)" fill="white"/>
<path d="M1.16372 0C0.520258 0 0 0.521876 0 1.16372C0 1.80717 0.520662 2.32784 1.16372 2.32784C1.80556 2.32784 2.32582 1.80717 2.32582 1.16372C2.32582 0.521876 1.80556 0 1.16372 0Z" transform="translate(7.97485 31.9123)" fill="white"/>
<path d="M1.47838 2.95837C2.29593 2.95837 2.95877 2.29593 2.95877 1.47838C2.95877 0.662039 2.29593 0 1.47838 0C0.662443 0 1.84512e-07 0.662443 1.84512e-07 1.47838C-0.000403743 2.29593 0.662443 2.95837 1.47838 2.95837Z" transform="translate(25.7679 31.5977)" fill="white"/>
<path d="M1.16372 2.32784C1.80556 2.32784 2.32743 1.80717 2.32743 1.16533C2.32743 0.521875 1.80556 0 1.16372 0C0.519857 0 0 0.521875 0 1.16533C0 1.80717 0.519857 2.32784 1.16372 2.32784Z" transform="translate(29.7009 31.9123)" fill="white"/>
<path d="M38.7049 6.68743C38.4294 5.6978 37.5751 5.00628 36.6315 5.00628C36.5475 5.00628 36.4655 5.0184 36.3835 5.02971C36.3657 4.89843 36.3516 4.76715 36.3326 4.63588C36.249 4.01585 35.7683 3.52306 35.1495 3.4245C34.6244 3.34089 34.0969 3.26172 33.5718 3.18578C31.3053 1.59632 25.9892 0 20.0006 0H19.9513H19.9073C13.9207 0 8.60256 1.59632 6.33773 3.18578C5.8094 3.26172 5.28025 3.34169 4.75797 3.4245C4.13956 3.52306 3.65889 4.01585 3.57527 4.63588C3.55791 4.76392 3.54377 4.89197 3.5264 5.02082C3.47429 5.01678 3.4234 5.00628 3.36967 5.00628C2.4257 5.00628 1.57341 5.6978 1.29631 6.68743C0.428273 9.79282 -0.00796838 13.015 0.000110171 16.2666C0.00132195 17.6028 0.97398 18.6905 2.16799 18.6905H2.19626C2.33724 18.6889 2.47942 18.6841 2.62039 18.6825C2.61231 24.1779 3.02836 29.6778 3.8758 35.1361C3.96749 35.731 4.42595 36.2036 5.01891 36.3147C5.44748 36.3935 5.87726 36.4666 6.30623 36.5393V39.0679C6.30623 39.8002 6.89919 40.3928 7.63152 40.3928H9.95127C10.682 40.3928 11.2766 39.8002 11.2766 39.0679V37.2288C14.1735 37.5418 17.0749 37.705 19.9545 37.705C22.8644 37.705 25.7957 37.539 28.7262 37.2191V39.0679C28.7262 39.8002 29.3192 40.3928 30.0511 40.3928H32.3689C33.1012 40.3928 33.6945 39.8002 33.6945 39.0679V36.5235C34.0928 36.4553 34.4911 36.389 34.8886 36.3147C35.4815 36.2036 35.9396 35.731 36.0313 35.1361C36.8795 29.6774 37.2952 24.1779 37.2867 18.6808C37.4591 18.6841 37.6328 18.6889 37.8037 18.6901H37.832C39.026 18.6901 39.9986 17.6024 39.9999 16.2662C40.0091 13.015 39.5729 9.79242 38.7049 6.68743ZM4.98256 4.82694C5.61996 4.72474 6.25897 4.63022 6.89758 4.54055C8.5961 3.14619 13.8173 1.41981 19.9073 1.41981H19.9545H20.0006C26.0886 1.41981 31.3134 3.14579 33.0099 4.54055C33.6489 4.63022 34.2879 4.72474 34.9265 4.82694C34.9552 5.03859 34.9786 5.25227 35.0073 5.46474C34.754 5.55441 34.504 5.6457 34.2512 5.73295C33.8638 5.87069 33.5398 6.1086 33.293 6.40751C29.4174 4.90934 24.8501 4.04089 19.9545 4.04089C15.0872 4.04089 10.5475 4.89964 6.68592 6.38165C6.44195 6.09527 6.12608 5.86624 5.74962 5.73335C5.46646 5.6356 5.18654 5.53341 4.90541 5.43283C4.93207 5.23086 4.95428 5.0293 4.98256 4.82694ZM6.66209 9.77505H33.3387L33.5063 10.8277C33.47 10.8358 33.4336 10.8394 33.396 10.8394H6.60513C6.56757 10.8394 6.53081 10.8354 6.49446 10.8277L6.66209 9.77505ZM3.9897 17.2372C3.38866 17.2546 2.7864 17.2639 2.17768 17.2703H2.16839C1.81536 17.2703 1.41992 16.8397 1.41992 16.2629C1.41345 13.1422 1.83111 10.0485 2.66442 7.06954C2.77065 6.69106 3.05986 6.42609 3.37008 6.42609C3.4335 6.42609 3.49651 6.4382 3.56275 6.46284C4.13673 6.67248 4.71112 6.87606 5.28187 7.07237C5.66923 7.21011 5.88614 7.63666 5.77345 8.04341C5.02699 10.7538 4.65861 13.5659 4.68082 16.4039C4.68406 16.8498 4.37061 17.2247 3.9897 17.2372ZM34.6296 34.9179C29.7369 35.8292 24.8453 36.2848 19.9545 36.2848C15.0622 36.2848 10.171 35.8292 5.27864 34.9179C4.95751 32.845 4.70142 30.7724 4.5039 28.6991H7.18437C7.85771 28.6991 8.70394 28.2693 8.96932 27.6392C9.5639 26.2274 8.43937 24.1525 7.80278 22.9427C6.96625 21.3569 6.0045 19.8304 5.26612 18.1953C5.69468 17.85 5.99036 17.3382 6.07397 16.7501C8.86511 23.1786 14.55 28.6991 20.0559 28.6991C26.7102 28.6991 33.4526 25.8449 35.7013 24.7999C35.5086 28.1723 35.1527 31.5455 34.6296 34.9179ZM37.8328 17.2703H37.8251C37.2144 17.2639 36.6117 17.2546 36.0107 17.2372C35.6302 17.2247 35.3183 16.8498 35.3204 16.4039C35.3426 13.5659 34.9738 10.7538 34.2273 8.04341C34.1166 7.63666 34.3319 7.21011 34.7193 7.07237C35.2901 6.87647 35.8657 6.67248 36.44 6.46284C36.5047 6.4382 36.5677 6.42609 36.6315 6.42609C36.9417 6.42609 37.2325 6.69106 37.3368 7.06954C38.1701 10.0485 38.5893 13.1422 38.5809 16.2629C38.5809 16.8397 38.1858 17.2703 37.8328 17.2703Z" fill="white"/>
</svg>
