<svg width="9" height="9" viewBox="0 0 9 9" fill="none" xmlns="http://www.w3.org/2000/svg">
<mask id="path-1-inside-1" fill="white">
<path d="M0.205263 0.205263C0.478938 -0.0684095 0.922676 -0.0684211 1.19636 0.205263L4.5 3.50891L7.80365 0.205263C8.07733 -0.0684188 8.52105 -0.0684235 8.79474 0.205263C9.06842 0.478939 9.06842 0.922666 8.79474 1.19635L5.4911 4.5L8.79474 7.80363C9.06842 8.07732 9.06842 8.52106 8.79474 8.79475C8.52105 9.06844 8.07733 9.06842 7.80365 8.79475L4.5 5.49109L1.19636 8.79475C0.922677 9.06842 0.478941 9.06842 0.205265 8.79475C-0.0684238 8.52106 -0.0684191 8.07732 0.205265 7.80363L3.50891 4.5L0.205265 1.19635C-0.0684168 0.922669 -0.068426 0.478955 0.205263 0.205263V0.205263Z"/>
</mask>
<path d="M0.205263 0.205263C0.478938 -0.0684095 0.922676 -0.0684211 1.19636 0.205263L4.5 3.50891L7.80365 0.205263C8.07733 -0.0684188 8.52105 -0.0684235 8.79474 0.205263C9.06842 0.478939 9.06842 0.922666 8.79474 1.19635L5.4911 4.5L8.79474 7.80363C9.06842 8.07732 9.06842 8.52106 8.79474 8.79475C8.52105 9.06844 8.07733 9.06842 7.80365 8.79475L4.5 5.49109L1.19636 8.79475C0.922677 9.06842 0.478941 9.06842 0.205265 8.79475C-0.0684238 8.52106 -0.0684191 8.07732 0.205265 7.80363L3.50891 4.5L0.205265 1.19635C-0.0684168 0.922669 -0.068426 0.478955 0.205263 0.205263V0.205263Z" fill="white"/>
<path d="M1.19636 0.205263L3.31768 -1.91606L3.31768 -1.91606L1.19636 0.205263ZM4.5 3.50891L2.37868 5.63023L4.5 7.75156L6.62133 5.63023L4.5 3.50891ZM7.80365 0.205263L5.68233 -1.91606L5.68233 -1.91606L7.80365 0.205263ZM8.79474 0.205263L10.9161 -1.91606L10.916 -1.91607L8.79474 0.205263ZM8.79474 1.19635L10.9161 3.31767L10.9161 3.31766L8.79474 1.19635ZM5.4911 4.5L3.36977 2.37868L1.24845 4.5L3.36978 6.62132L5.4911 4.5ZM8.79474 7.80363L10.9161 5.68235L10.9161 5.68231L8.79474 7.80363ZM8.79474 8.79475L10.9161 10.9161L10.9161 10.916L8.79474 8.79475ZM7.80365 8.79475L5.68232 10.9161L5.68238 10.9161L7.80365 8.79475ZM4.5 5.49109L6.62133 3.36977L4.5 1.24843L2.37867 3.36977L4.5 5.49109ZM1.19636 8.79475L3.31762 10.9161L3.31769 10.9161L1.19636 8.79475ZM0.205265 8.79475L-1.91606 10.9161L-1.91602 10.9161L0.205265 8.79475ZM0.205265 7.80363L-1.91605 5.68231L-1.91607 5.68233L0.205265 7.80363ZM3.50891 4.5L5.63023 6.62132L7.75155 4.5L5.63023 2.37868L3.50891 4.5ZM0.205265 1.19635L2.32659 -0.924969L2.32659 -0.924969L0.205265 1.19635ZM2.32657 2.32659C1.42872 3.22444 -0.0270337 3.22451 -0.92496 2.32658L3.31768 -1.91606C1.87239 -3.36135 -0.47084 -3.36126 -1.91605 -1.91607L2.32657 2.32659ZM-0.924961 2.32658L2.37868 5.63023L6.62133 1.38759L3.31768 -1.91606L-0.924961 2.32658ZM6.62133 5.63023L9.92497 2.32658L5.68233 -1.91606L2.37868 1.38759L6.62133 5.63023ZM9.92497 2.32658C9.02708 3.22447 7.57132 3.22447 6.67344 2.3266L10.916 -1.91607C9.47078 -3.36131 7.12758 -3.36131 5.68233 -1.91606L9.92497 2.32658ZM6.67342 2.32658C5.77554 1.4287 5.77552 -0.0270597 6.67341 -0.92496L10.9161 3.31766C12.3613 1.87239 12.3613 -0.470823 10.9161 -1.91606L6.67342 2.32658ZM6.67342 -0.924969L3.36977 2.37868L7.61242 6.62132L10.9161 3.31767L6.67342 -0.924969ZM3.36978 6.62132L6.67343 9.92496L10.9161 5.68231L7.61241 2.37867L3.36978 6.62132ZM6.67339 9.92492C5.77551 9.02701 5.77557 7.57132 6.67337 6.67348L10.9161 10.916C12.3613 9.4708 12.3613 7.12764 10.9161 5.68235L6.67339 9.92492ZM6.67342 6.67343C7.5714 5.77545 9.02713 5.77564 9.92491 6.67337L5.68238 10.9161C7.12753 12.3612 9.4707 12.3614 10.9161 10.9161L6.67342 6.67343ZM9.92497 6.67343L6.62133 3.36977L2.37868 7.6124L5.68232 10.9161L9.92497 6.67343ZM2.37867 3.36977L-0.924968 6.67344L3.31769 10.9161L6.62133 7.6124L2.37867 3.36977ZM-0.924898 6.67337C-0.0270368 5.77556 1.42865 5.77552 2.32655 6.67339L-1.91602 10.9161C-0.470764 12.3613 1.87239 12.3613 3.31762 10.9161L-0.924898 6.67337ZM2.32659 6.67343C3.22449 7.57134 3.22444 9.02708 2.3266 9.92494L-1.91607 5.68233C-3.36128 7.12757 -3.36134 9.47078 -1.91606 10.9161L2.32659 6.67343ZM2.32658 9.92496L5.63023 6.62132L1.38759 2.37868L-1.91605 5.68231L2.32658 9.92496ZM5.63023 2.37868L2.32659 -0.924969L-1.91606 3.31767L1.38759 6.62132L5.63023 2.37868ZM2.32659 -0.924969C3.22445 -0.0271058 3.22449 1.42867 2.32659 2.32657L-1.91607 -1.91605C-3.36134 -0.470758 -3.36128 1.87244 -1.91606 3.31767L2.32659 -0.924969Z" fill="white" mask="url(#path-1-inside-1)"/>
</svg>
