<svg width="10" height="7" viewBox="0 0 10 7" fill="none" xmlns="http://www.w3.org/2000/svg">
<g opacity="0.5">
<path d="M3.29309 4.85868C3.36582 4.84496 3.43412 4.81373 3.49208 4.76768C3.55003 4.72164 3.59589 4.66217 3.6257 4.59442L4.87869 1.74671L6.28318 6.15382C6.31071 6.24063 6.36362 6.31719 6.43509 6.37364C6.50656 6.43008 6.59331 6.46382 6.68413 6.47048H6.71717C6.80249 6.47034 6.88605 6.44624 6.95835 6.40092C7.03065 6.35561 7.08877 6.29091 7.1261 6.21419L8.40529 3.5943H9.54437C9.66521 3.5943 9.7811 3.5463 9.86655 3.46085C9.952 3.3754 10 3.25951 10 3.13867C10 3.01783 9.952 2.90193 9.86655 2.81649C9.7811 2.73104 9.66521 2.68304 9.54437 2.68304H8.12166C8.03614 2.68297 7.95233 2.70697 7.87981 2.75229C7.8073 2.79762 7.749 2.86243 7.71159 2.93933L6.80601 4.79603L5.38444 0.317162C5.35634 0.229059 5.30209 0.151593 5.2289 0.0950587C5.15572 0.038524 5.06707 0.00559685 4.97472 0.000652017C4.88238 -0.00429282 4.79071 0.0189789 4.71191 0.0673751C4.63311 0.115771 4.5709 0.187001 4.53355 0.271599L3.05843 3.6205L1.96947 2.53837C1.88405 2.45364 1.76857 2.40614 1.64825 2.40624H0.455633C0.334791 2.40624 0.218899 2.45424 0.133452 2.53969C0.048004 2.62514 0 2.74103 0 2.86187C0 2.98271 0.048004 3.0986 0.133452 3.18405C0.218899 3.2695 0.334791 3.3175 0.455633 3.3175H1.4603L2.88757 4.73452C2.94003 4.78654 3.00436 4.82503 3.075 4.84666C3.14565 4.86829 3.22049 4.87241 3.29309 4.85868Z" fill="#FF0000"/>
</g>
</svg>
