<svg width="7" height="10" viewBox="0 0 7 10" fill="none" xmlns="http://www.w3.org/2000/svg">
<mask id="path-1-inside-1" fill="white">
<path d="M0 4.89992C0.000138098 4.88434 0.000138013 4.86877 0.00207138 4.8532C0.00952866 4.7381 0.0527534 4.62844 0.135612 4.53413C0.179113 4.47565 0.22938 4.41914 0.293872 4.36839L5.53703 0.233908C5.90078 -0.0529258 6.45662 -0.0797144 6.77894 0.174342C7.10099 0.428398 7.06729 0.866707 6.70313 1.15365L1.95215 4.89992L6.70313 8.64629C7.06729 8.93334 7.10099 9.37154 6.77894 9.6256C6.45662 9.87966 5.90106 9.85298 5.53703 9.56625L0.293734 5.43155C0.229242 5.3807 0.178975 5.32429 0.135474 5.26592C0.0527532 5.17161 0.00952866 5.06185 0.00207138 4.94696C0.000138013 4.93106 0.000138098 4.91571 0 4.89992Z"/>
</mask>
<path d="M0 4.89992C0.000138098 4.88434 0.000138013 4.86877 0.00207138 4.8532C0.00952866 4.7381 0.0527534 4.62844 0.135612 4.53413C0.179113 4.47565 0.22938 4.41914 0.293872 4.36839L5.53703 0.233908C5.90078 -0.0529258 6.45662 -0.0797144 6.77894 0.174342C7.10099 0.428398 7.06729 0.866707 6.70313 1.15365L1.95215 4.89992L6.70313 8.64629C7.06729 8.93334 7.10099 9.37154 6.77894 9.6256C6.45662 9.87966 5.90106 9.85298 5.53703 9.56625L0.293734 5.43155C0.229242 5.3807 0.178975 5.32429 0.135474 5.26592C0.0527532 5.17161 0.00952866 5.06185 0.00207138 4.94696C0.000138013 4.93106 0.000138098 4.91571 0 4.89992Z" fill="white"/>
<path d="M0 4.89992L-4.9998 4.85558L-5.00019 4.89961L-4.99981 4.94364L0 4.89992ZM0.00207138 4.8532L4.96398 5.46924L4.9821 5.32326L4.99161 5.17646L0.00207138 4.8532ZM0.135612 4.53413L3.89173 7.83437L4.02597 7.68159L4.14735 7.51842L0.135612 4.53413ZM0.293872 4.36839L3.38576 8.2978L3.38985 8.29457L0.293872 4.36839ZM5.53703 0.233908L8.63301 4.16009L5.53703 0.233908ZM6.77894 0.174342L9.87574 -3.75119L9.87411 -3.75248L6.77894 0.174342ZM6.70313 1.15365L3.60859 -2.77367L3.6072 -2.77257L6.70313 1.15365ZM1.95215 4.89992L-1.14378 0.973693L-6.1229 4.89986L-1.14383 8.8261L1.95215 4.89992ZM6.70313 8.64629L3.60715 12.5725L3.60787 12.573L6.70313 8.64629ZM6.77894 9.6256L9.87411 13.5524L9.87574 13.5511L6.77894 9.6256ZM5.53703 9.56625L2.441 13.4924L2.44322 13.4941L5.53703 9.56625ZM0.293734 5.43155L3.38977 1.50541L3.38972 1.50537L0.293734 5.43155ZM0.135474 5.26592L4.14454 2.27805L4.02559 2.11844L3.89432 1.96879L0.135474 5.26592ZM0.00207138 4.94696L4.99157 4.62309L4.98247 4.48287L4.96551 4.34339L0.00207138 4.94696ZM4.9998 4.94426C5.00017 4.90281 4.9999 4.97343 4.9976 5.04273C4.99482 5.12642 4.98762 5.2788 4.96398 5.46924L-4.95983 4.23716C-4.98541 4.44317 -4.99357 4.61112 -4.99688 4.71039C-4.9997 4.79526 -5.00003 4.88145 -4.9998 4.85558L4.9998 4.94426ZM4.99161 5.17646C4.92851 6.15047 4.54526 7.09057 3.89173 7.83437L-3.62051 1.2339C-4.43975 2.16631 -4.90945 3.32572 -4.98747 4.52994L4.99161 5.17646ZM4.14735 7.51842C4.00588 7.7086 3.7584 8.00458 3.38576 8.2978L-2.79802 0.438987C-3.29964 0.833691 -3.64765 1.24271 -3.87613 1.54985L4.14735 7.51842ZM3.38985 8.29457L8.63301 4.16009L2.44105 -3.69227L-2.80211 0.442211L3.38985 8.29457ZM8.63301 4.16009C7.92623 4.71742 7.13452 4.9609 6.41342 4.99553C5.71801 5.02894 4.67091 4.87923 3.68378 4.10117L9.87411 -3.75248C8.56466 -4.7846 7.07847 -5.04794 5.93362 -4.99295C4.76309 -4.93672 3.51158 -4.53644 2.44105 -3.69227L8.63301 4.16009ZM3.68214 4.09988C2.58516 3.23448 1.89364 1.81438 2.01322 0.266555C2.12522 -1.18336 2.89233 -2.20929 3.60859 -2.77367L9.79766 5.08097C10.8781 4.22965 11.8441 2.84109 11.9835 1.03677C12.1305 -0.865462 11.2948 -2.63174 9.87574 -3.75119L3.68214 4.09988ZM3.6072 -2.77257L-1.14378 0.973693L5.04808 8.82614L9.79905 5.07987L3.6072 -2.77257ZM-1.14383 8.8261L3.60715 12.5725L9.79911 4.72011L5.04813 0.973736L-1.14383 8.8261ZM3.60787 12.573C2.89238 12.0091 2.12524 10.9835 2.01322 9.53346C1.89361 7.98529 2.58541 6.56526 3.68214 5.70006L9.87574 13.5511C11.2945 12.4319 12.1305 10.6657 11.9835 8.76318C11.8441 6.95879 10.878 5.57058 9.79839 4.71954L3.60787 12.573ZM3.68378 5.69877C4.67029 4.9212 5.71691 4.77114 6.41265 4.80443C7.134 4.83896 7.92494 5.08235 8.63084 5.63836L2.44322 13.4941C3.51315 14.3369 4.76388 14.737 5.9346 14.793C7.07971 14.8478 8.56528 14.5841 9.87411 13.5524L3.68378 5.69877ZM8.63306 5.64011L3.38977 1.50541L-2.8023 9.35769L2.441 13.4924L8.63306 5.64011ZM3.38972 1.50537C3.75681 1.79484 4.00223 2.0871 4.14454 2.27805L-3.8736 8.25379C-3.64429 8.56147 -3.29833 8.96655 -2.80225 9.35773L3.38972 1.50537ZM3.89432 1.96879C4.54587 2.71158 4.9284 3.64995 4.99157 4.62309L-4.98743 5.27083C-4.90935 6.47374 -4.44036 7.63165 -3.62338 8.56305L3.89432 1.96879ZM4.96551 4.34339C4.98763 4.52533 4.99477 4.67203 4.99761 4.75751C4.99991 4.82688 5.00017 4.89714 4.99981 4.85619L-4.99981 4.94364C-5.00003 4.91849 -4.99971 5.00432 -4.99689 5.08928C-4.99353 5.19037 -4.98542 5.35269 -4.96136 5.55053L4.96551 4.34339Z" fill="white" mask="url(#path-1-inside-1)"/>
</svg>
