<svg width="375" height="20" viewBox="0 0 375 20" fill="none" xmlns="http://www.w3.org/2000/svg">
<path opacity="0.4" d="M0.5 4C0.5 3.29168 0.500389 2.79052 0.5324 2.39872C0.563934 2.01276 0.623645 1.77717 0.717987 1.59202C0.909734 1.21569 1.21569 0.909734 1.59202 0.717987C1.77717 0.623645 2.01276 0.563934 2.39872 0.5324C2.79052 0.500389 3.29168 0.5 4 0.5H20C20.7083 0.5 21.2095 0.500389 21.6013 0.5324C21.9872 0.563934 22.2228 0.623645 22.408 0.717987C22.7843 0.909734 23.0903 1.2157 23.282 1.59202C23.3764 1.77717 23.4361 2.01276 23.4676 2.39872C23.4996 2.79052 23.5 3.29168 23.5 4V7.64764C23.5 8.28558 23.4997 8.73693 23.4736 9.09094C23.4478 9.43994 23.399 9.65457 23.3222 9.82438C23.1219 10.2672 22.7672 10.6219 22.3244 10.8222C22.1546 10.899 21.9399 10.9478 21.5909 10.9736C21.2369 10.9997 20.7856 11 20.1476 11H4C3.29168 11 2.79052 10.9996 2.39872 10.9676C2.01276 10.9361 1.77717 10.8764 1.59202 10.782C1.2157 10.5903 0.909734 10.2843 0.717987 9.90798C0.623645 9.72283 0.563934 9.48724 0.5324 9.10128C0.500389 8.70948 0.5 8.20832 0.5 7.5V4Z" transform="translate(343 4.5)" stroke="black"/>
<path opacity="0.4" fill-rule="evenodd" clip-rule="evenodd" d="M0 3.87398C0.86261 3.65196 1.5 2.86891 1.5 1.93699C1.5 1.00507 0.86261 0.222023 0 0V3.87398Z" transform="translate(368 8.5)" fill="black"/>
<path fill-rule="evenodd" clip-rule="evenodd" d="M0 0.5C0 0.223858 0.223858 0 0.5 0H19.5C19.7761 0 20 0.223858 20 0.5V7C20 7.27614 19.7761 7.5 19.5 7.5H0.5C0.223857 7.5 0 7.27614 0 7V0.5Z" transform="translate(345 6.5)" fill="black"/>
<path d="M5.8125 11H6.86719V2.54492H5.81836L3.56836 4.16211V5.27539L5.71875 3.7168H5.8125V11ZM12.2344 11.1992C14.1328 11.1992 15.2227 9.59375 15.2227 6.78711C15.2227 3.98633 14.1152 2.3457 12.2344 2.3457C10.3418 2.3457 9.23438 3.98047 9.23438 6.76953C9.23438 9.58203 10.3301 11.1992 12.2344 11.1992ZM12.2344 10.2793C10.9863 10.2793 10.2949 9.03125 10.2949 6.76953C10.2949 4.53711 10.998 3.27148 12.2344 3.27148C13.4707 3.27148 14.1621 4.52539 14.1621 6.76953C14.1621 9.03711 13.4824 10.2793 12.2344 10.2793ZM19.793 11.1992C21.6914 11.1992 22.7812 9.59375 22.7812 6.78711C22.7812 3.98633 21.6738 2.3457 19.793 2.3457C17.9004 2.3457 16.793 3.98047 16.793 6.76953C16.793 9.58203 17.8887 11.1992 19.793 11.1992ZM19.793 10.2793C18.5449 10.2793 17.8535 9.03125 17.8535 6.76953C17.8535 4.53711 18.5566 3.27148 19.793 3.27148C21.0293 3.27148 21.7207 4.52539 21.7207 6.76953C21.7207 9.03711 21.041 10.2793 19.793 10.2793ZM27.6387 4.43164C27.6387 3.23633 26.8945 2.39844 25.8398 2.39844C24.7852 2.39844 24.0352 3.24219 24.0352 4.43164C24.0352 5.62695 24.7852 6.4707 25.8398 6.4707C26.8945 6.4707 27.6387 5.62695 27.6387 4.43164ZM25.8398 5.7207C25.3184 5.7207 24.9727 5.21094 24.9727 4.43164C24.9727 3.65234 25.3125 3.14844 25.8398 3.14844C26.3672 3.14844 26.7012 3.64062 26.7012 4.43164C26.7012 5.20508 26.3555 5.7207 25.8398 5.7207ZM25.7461 11L28.6465 7.0332L31.9277 2.54492H30.8613L27.8965 6.59375L24.668 11H25.7461ZM32.5312 9.10742C32.5312 7.91211 31.7871 7.07422 30.7324 7.07422C29.6777 7.07422 28.9277 7.91797 28.9277 9.10742C28.9277 10.3027 29.6777 11.1465 30.7324 11.1465C31.7871 11.1465 32.5312 10.3027 32.5312 9.10742ZM30.7324 10.3965C30.2109 10.3965 29.8652 9.88672 29.8652 9.10742C29.8652 8.32812 30.2051 7.82422 30.7324 7.82422C31.2598 7.82422 31.5938 8.31641 31.5938 9.10742C31.5938 9.88086 31.248 10.3965 30.7324 10.3965Z" transform="translate(307 3.5)" fill="#030303"/>
<path d="M0 2L6 7.5L3 10V0L6 2.5L0 8" transform="translate(298.5 5)" stroke="black"/>
<path d="M4.17383 11.2051C6.32422 11.2051 7.60156 9.52344 7.60156 6.67578C7.60156 5.60352 7.39648 4.70117 7.00391 4.00391C6.43555 2.91992 5.45703 2.33398 4.2207 2.33398C2.38086 2.33398 1.08008 3.57031 1.08008 5.30469C1.08008 6.93359 2.25195 8.11719 3.86328 8.11719C4.85352 8.11719 5.65625 7.6543 6.05469 6.85156H6.07227C6.07227 6.85156 6.0957 6.85156 6.10156 6.85156C6.11328 6.85156 6.1543 6.85156 6.1543 6.85156C6.1543 8.78516 5.42188 9.93945 4.18555 9.93945C3.45898 9.93945 2.89648 9.54102 2.70312 8.90234H1.19727C1.44922 10.291 2.62695 11.2051 4.17383 11.2051ZM4.22656 6.91602C3.25391 6.91602 2.5625 6.22461 2.5625 5.25781C2.5625 4.31445 3.28906 3.59375 4.23242 3.59375C5.17578 3.59375 5.90234 4.32617 5.90234 5.28125C5.90234 6.22461 5.19336 6.91602 4.22656 6.91602ZM10.2559 10.1035C10.8125 10.1035 11.1934 9.70508 11.1934 9.17773C11.1934 8.64453 10.8125 8.25195 10.2559 8.25195C9.70508 8.25195 9.31836 8.64453 9.31836 9.17773C9.31836 9.70508 9.70508 10.1035 10.2559 10.1035ZM10.2559 5.70898C10.8125 5.70898 11.1934 5.31641 11.1934 4.78906C11.1934 4.25586 10.8125 3.86328 10.2559 3.86328C9.70508 3.86328 9.31836 4.25586 9.31836 4.78906C9.31836 5.31641 9.70508 5.70898 10.2559 5.70898ZM17.0352 11H18.4824V9.42383H19.625V8.14648H18.4824V2.54492H16.3496C14.8555 4.79492 13.666 6.67578 12.9043 8.07617V9.42383H17.0352V11ZM14.3047 8.09375C15.2891 6.35938 16.168 4.9707 16.9766 3.77539H17.0586V8.18164H14.3047V8.09375ZM23.0879 11H24.5996V2.54492H23.0938L20.8848 4.0918V5.54492L22.9883 4.06836H23.0879V11ZM35.8145 11H37.4375L34.4316 2.54492H32.7324L29.7324 11H31.2617L31.9883 8.83789H35.0996L35.8145 11ZM33.5 4.15625H33.5996L34.748 7.64258H32.3398L33.5 4.15625ZM47.6211 11V2.54492H45.8516L43.3086 8.70312H43.2031L40.6602 2.54492H38.8906V11H40.2969V5.05273H40.3789L42.7168 10.6719H43.7949L46.1328 5.05273H46.2148V11H47.6211Z" transform="translate(163 3.5)" fill="#030303"/>
<path d="M0.673828 8.79102C0.785156 10.25 2.02148 11.1992 3.81445 11.1992C5.74805 11.1992 6.97266 10.209 6.97266 8.65625C6.97266 7.41406 6.26953 6.73438 4.51758 6.29492L3.63281 6.06055C2.4668 5.76172 2.00391 5.38086 2.00391 4.71875C2.00391 3.86328 2.74805 3.30078 3.87305 3.30078C4.92773 3.30078 5.64258 3.81641 5.78906 4.68359H6.84961C6.76172 3.31836 5.54297 2.3457 3.9082 2.3457C2.12109 2.3457 0.919922 3.31836 0.919922 4.75391C0.919922 5.95508 1.58203 6.64648 3.11133 7.0332L4.19531 7.31445C5.36133 7.60742 5.88867 8.06445 5.88867 8.78516C5.88867 9.62305 5.05078 10.2383 3.91406 10.2383C2.71289 10.2383 1.86914 9.67578 1.74023 8.79102H0.673828ZM9.76172 7.44336H9.66797V2.17578H8.66016V11H9.66797V8.60352L10.2715 8.04102L12.6387 11H13.9219L11.0215 7.39062L13.7402 4.68359H12.5039L9.76172 7.44336ZM17.3438 5.46289C18.3457 5.46289 19.0137 6.20117 19.0371 7.32031H15.5566C15.6328 6.20117 16.3359 5.46289 17.3438 5.46289ZM19.0078 9.36523C18.7441 9.92188 18.1934 10.2207 17.3789 10.2207C16.3066 10.2207 15.6094 9.42969 15.5566 8.18164V8.13477H20.0977V7.74805C20.0977 5.78516 19.0605 4.57227 17.3555 4.57227C15.6211 4.57227 14.5078 5.86133 14.5078 7.84766C14.5078 9.8457 15.6035 11.1113 17.3555 11.1113C18.7383 11.1113 19.7109 10.4492 20.0156 9.36523H19.0078ZM22.1016 3.04883V4.68359H21.082V5.52734H22.1016V9.35938C22.1016 10.5664 22.623 11.0469 23.9238 11.0469C24.123 11.0469 24.3164 11.0234 24.5156 10.9883V10.1387C24.3281 10.1562 24.2285 10.1621 24.0469 10.1621C23.3906 10.1621 23.1094 9.8457 23.1094 9.10156V5.52734H24.5156V4.68359H23.1094V3.04883H22.1016ZM31.1719 6.61719C30.9961 5.49219 30.0586 4.57227 28.5234 4.57227C26.7539 4.57227 25.6289 5.84961 25.6289 7.81836C25.6289 9.82812 26.7598 11.1113 28.5293 11.1113C30.0469 11.1113 30.9902 10.2559 31.1719 9.0957H30.1523C29.9648 9.81055 29.373 10.2031 28.5234 10.2031C27.3984 10.2031 26.6719 9.27734 26.6719 7.81836C26.6719 6.38867 27.3867 5.48047 28.5234 5.48047C29.4316 5.48047 29.9883 5.99023 30.1523 6.61719H31.1719ZM32.7188 11H33.7266V7.26172C33.7266 6.19531 34.3477 5.48047 35.4785 5.48047C36.4336 5.48047 36.9375 6.03711 36.9375 7.15625V11H37.9453V6.91016C37.9453 5.42773 37.1016 4.57227 35.7656 4.57227C34.7988 4.57227 34.1367 4.98242 33.8203 5.67969H33.7266V2.17578H32.7188V11Z" transform="translate(26 3.5)" fill="#030303"/>
<path fill-rule="evenodd" clip-rule="evenodd" d="M14.5 0C13.9477 0 13.5 0.447716 13.5 1V9C13.5 9.55228 13.9477 10 14.5 10H15.5C16.0523 10 16.5 9.55228 16.5 9V1C16.5 0.447716 16.0523 0 15.5 0H14.5ZM9 3C9 2.44772 9.44771 2 10 2H11C11.5523 2 12 2.44772 12 3V9C12 9.55228 11.5523 10 11 10H10C9.44771 10 9 9.55228 9 9V3ZM5.5 4C4.94771 4 4.5 4.44772 4.5 5V9C4.5 9.55228 4.94771 10 5.5 10H6.5C7.05229 10 7.5 9.55228 7.5 9V5C7.5 4.44772 7.05229 4 6.5 4H5.5ZM1 5.5C0.447708 5.5 0 5.94772 0 6.5V9C0 9.55228 0.447708 10 1 10H2C2.55229 10 3 9.55228 3 9V6.5C3 5.94772 2.55229 5.5 2 5.5H1Z" transform="translate(6 5)" fill="black"/>
<path fill-rule="evenodd" clip-rule="evenodd" d="M0 2.82956C1.87675 1.07441 4.39812 0 7.17044 0C9.94275 0 12.4641 1.07441 14.3409 2.82956L12.9257 4.24476C11.4117 2.85108 9.39046 2 7.17044 2C4.95042 2 2.92918 2.85108 1.4152 4.24476L0 2.82956H0ZM2.47697 5.30653C3.71857 4.18377 5.36465 3.5 7.17044 3.5C8.97623 3.5 10.6223 4.18377 11.8639 5.30653L10.4472 6.72326C9.56964 5.96124 8.42391 5.5 7.17044 5.5C5.91698 5.5 4.77124 5.96124 3.89371 6.72326L2.47697 5.30653ZM4.95815 7.78771C5.56109 7.29532 6.33127 7 7.17044 7C8.0096 7 8.77978 7.29532 9.38273 7.78771L7.17044 10L4.95815 7.78771Z" transform="translate(71.3296 5)" fill="black"/>
</svg>
